<svg xmlns="http://www.w3.org/2000/svg" height="24px" viewBox="0 -960 960 960" width="24px" fill="#000000"><path d="M71.93-187.69v-88.93q0-30.92 15.96-55.19 15.96-24.27 42.65-37.73 57-27.92 114.65-43.04 57.66-15.11 126.73-15.11 69.08 0 126.73 15.11 57.66 15.12 114.66 43.04 26.69 13.46 42.65 37.73 15.96 24.27 15.96 55.19v88.93H71.93Zm679.99 0v-93.85q0-39.38-19.3-75.07-19.31-35.7-54.7-61.23 40.23 6 76.39 18.57 36.15 12.58 69 29.73 31 16.54 47.88 38.92 16.88 22.39 16.88 49.08v93.85H751.92ZM272.96-533.35q-41.03-41.03-41.03-98.96 0-57.92 41.03-98.96 41.04-41.04 98.96-41.04 57.93 0 98.96 41.04 41.04 41.04 41.04 98.96 0 57.93-41.04 98.96-41.03 41.04-98.96 41.04-57.92 0-98.96-41.04Zm403.31 0q-41.04 41.04-98.96 41.04-6.77 0-17.23-1.54-10.47-1.54-17.23-3.38 23.53-28.54 36.3-63.12 12.77-34.57 12.77-71.96 0-37.38-12.96-71.77-12.96-34.38-36.11-63.3 8.61-3.08 17.23-4 8.61-.93 17.23-.93 57.92 0 98.96 41.04 41.03 41.04 41.03 98.96 0 57.93-41.03 98.96Z"/></svg>